<?xml version="1.0" encoding="utf-8"?>
<svg viewBox="311.561 98.171 73.6 71.1" xmlns="http://www.w3.org/2000/svg">
  <g transform="matrix(1, 0, 0, 1, 298.360722, 83.670518)">
    <path d="M86.8,85.6l-23.1-7.5C58.7,81,53,82.5,47.2,82.5c-18.8,0-34-15.3-34-34s15.3-34,34-34s34,15.3,34,34   c0,6.1-1.6,12-4.6,17.2L86.8,85.6z M47.2,20.9c-15.2,0-27.6,12.4-27.6,27.6S32,76,47.2,76c5.1,0,10.1-1.4,14.5-4.1l1.3-0.8l11,3.6   l-4.8-9.4l1-1.6c3-4.5,4.6-9.8,4.6-15.2C74.8,33.2,62.4,20.9,47.2,20.9z"/>
  </g>
</svg>