<?xml version="1.0" encoding="utf-8"?>
<svg viewBox="265.381 197.092 77.8 67.4" xmlns="http://www.w3.org/2000/svg">
  <g transform="matrix(1, 0, 0, 1, 254.28133, 180.791522)">
    <path d="M50,83.7l-1.6-0.9c-1.5-0.9-37.3-21.4-37.3-43.5c0-12.7,10.3-23,23-23c6.9,0,12.5,4.5,15.9,8.1   c3.4-3.7,9-8.1,15.9-8.1c12.7,0,23,10.3,23,23c0,22-35.7,42.6-37.3,43.5L50,83.7z M34.1,22.8c-9.1,0-16.5,7.4-16.5,16.5   c0,14.4,22,30.7,32.4,36.9C60.3,70,82.4,53.7,82.4,39.3c0-9.1-7.4-16.5-16.5-16.5c-6.4,0-11.8,6.6-13.3,8.6L50,34.9l-2.6-3.5   C45.9,29.4,40.5,22.8,34.1,22.8z" style="stroke-width: 0px;"/>
  </g>
</svg>