<?xml version="1.0" encoding="utf-8"?>
<svg viewBox="100.223 87.694 77.341 63.8" xmlns="http://www.w3.org/2000/svg">
  <g transform="matrix(1, 0, 0, 1, 88.963395, 69.493526)">
    <path d="M88.4,22.6c0,0,0-0.1,0-0.1c0.1-0.1,0.1-0.3,0.2-0.4c0-0.1,0-0.1,0-0.2c0-0.1,0-0.2,0-0.4   c0-0.1,0-0.2,0-0.2c0-0.1,0-0.2,0-0.4c0-0.1,0-0.2,0-0.2c0,0,0-0.1,0-0.1c0-0.1,0-0.1-0.1-0.2c0-0.1,0-0.1-0.1-0.2   c0-0.1-0.1-0.2-0.2-0.3c0-0.1-0.1-0.1-0.1-0.2c-0.1-0.2-0.2-0.3-0.4-0.5c0,0,0,0,0,0c-0.1-0.1-0.3-0.3-0.4-0.4c0,0,0,0,0,0   c0,0-0.1,0-0.1-0.1c-0.1-0.1-0.2-0.1-0.4-0.2c-0.1,0-0.1-0.1-0.2-0.1c-0.1,0-0.2-0.1-0.4-0.1c-0.1,0-0.1,0-0.2-0.1   c-0.1,0-0.2,0-0.4,0c-0.1,0-0.1,0-0.2,0c0,0,0,0-0.1,0H14.5c-1.3,0-2.5,0.8-3,2c-0.5,1.2-0.2,2.6,0.7,3.5l23.2,23.2l5.2,32.4   c0.2,1.3,1.2,2.3,2.4,2.6c0.2,0.1,0.5,0.1,0.8,0.1c1,0,2-0.5,2.6-1.3l41.6-57.4c0,0,0,0,0,0C88.2,23,88.3,22.8,88.4,22.6z M72,24.5   L39.2,41.3L22.4,24.5H72z M45.8,70.5l-3.7-23.4l32.8-16.8L45.8,70.5z"/>
  </g>
</svg>